<svg width="17" height="17" viewBox="0 0 17 17" fill="none" xmlns="http://www.w3.org/2000/svg">
<path d="M12.8828 1.68555C12.6836 1.55273 12.418 1.61914 12.3184 1.81836L11.9199 2.51562C11.8203 2.68164 11.8867 2.91406 12.0527 3.04688C13.9121 4.20898 15.1406 6.30078 15.1406 8.625C15.1406 12.3105 12.1523 15.2656 8.5 15.2656C4.81445 15.2656 1.85938 12.3105 1.85938 8.625C1.85938 6.30078 3.05469 4.20898 4.91406 3.04688C5.08008 2.91406 5.14648 2.68164 5.04688 2.51562L4.64844 1.81836C4.54883 1.61914 4.2832 1.55273 4.08398 1.68555C1.79297 3.14648 0.232422 5.70312 0.265625 8.6582C0.265625 13.1738 3.98438 16.8926 8.5 16.8594C13.0488 16.8594 16.7344 13.1738 16.7344 8.625C16.7344 5.70312 15.1738 3.14648 12.8828 1.68555ZM9.29688 9.28906V0.523438C9.29688 0.324219 9.09766 0.125 8.89844 0.125H8.10156C7.86914 0.125 7.70312 0.324219 7.70312 0.523438V9.28906C7.70312 9.52148 7.86914 9.6875 8.10156 9.6875H8.89844C9.09766 9.6875 9.29688 9.52148 9.29688 9.28906Z" fill="lightgray"/>
</svg>
